<svg id="bf1e7fad-a344-49c3-ac9b-a64dc7112462" data-name="b5a107ae-efcb-44ad-8514-73941675d5ac" xmlns="http://www.w3.org/2000/svg" width="300" height="300" viewBox="0 0 300 300"><defs><style>.ae318562-179d-4b07-b947-11e38ba315de{fill:#009cde;}</style></defs><g id="afe59c66-93da-4339-9645-97530a5fa0bd" data-name="colorgroup1"><g id="a7c5295e-e662-4e2a-9214-5ce113fd7520" data-name="colorgroup1"><path class="ae318562-179d-4b07-b947-11e38ba315de" d="M179.73,97c-13-12.65-25.3-25-29-38.94-3.66,14-16,26.29-29,38.94-19.31,19.3-41.27,41.27-41.27,74.22a70,70,0,0,0,68.56,71.55c38.61.67,70.89-29.95,71.56-68.56v-3C221,138.25,199,116.28,179.73,97Zm-63.24,80.54a46.9,46.9,0,0,0-5.32,8.65c-.34.34-.67,1-1.33,1h-.34c-1.66,0-3.33-3-3.33-3h0c-.33-.67-1-1.67-1.33-2.33l-.33-.67c-4.33-9.32-.66-22.3-.66-22.3h0a58.78,58.78,0,0,1,8.32-18c2.33-3.33,5-6.66,7.65-10l3.33,3.32,15.64,16a1.6,1.6,0,0,1,0,2.33l-16.31,18.3h0Zm35,45.93a23.93,23.93,0,0,1-24-24.3,24.93,24.93,0,0,1,6-16c5-6,11.31-12,18.3-20,8,8.65,13.31,14.31,18.31,21a7.68,7.68,0,0,1,1,1.66,24.63,24.63,0,0,1,4.32,13.65c.34,13.31-10.65,24-24,24ZM197,184.84h0a3.55,3.55,0,0,1-2.33,2h-.34a6,6,0,0,1-2.33-1.66h0a121.32,121.32,0,0,0-14.31-17.64l-6.32-6.66-21.3-22c-4.33-4-8.66-8.65-12.65-13a.32.32,0,0,0-.33-.33,10.52,10.52,0,0,1-1.67-3.33v-.66a11.31,11.31,0,0,1,3.33-10c4-4,8.32-8.32,12.32-12.65,4.32,4.66,9,9.32,13.64,14h0a208.1,208.1,0,0,1,25.3,28.63,52,52,0,0,1,9.65,30.28A100.54,100.54,0,0,1,197,184.84Z"/></g></g></svg>